<svg xmlns="http://www.w3.org/2000/svg" viewBox="0 0 24 24">
  <defs>
    <linearGradient id="specialty" x1="0%" y1="0%" x2="100%" y2="100%">
      <stop offset="0%" stop-color="#10b981" />
      <stop offset="100%" stop-color="#059669" />
    </linearGradient>
  </defs>
  
  <circle cx="12" cy="12" r="11" fill="#0f1115" stroke="url(#specialty)" stroke-width="2" />
  
  <g transform="matrix(0.6 0 0 0.6 4.8 4.8)" stroke="url(#specialty)" stroke-width="2" fill="none" stroke-linecap="round" stroke-linejoin="round">
    <path d="M10 2v2"/>
    <path d="M14 2v2"/>
    <path d="M16 8a1 1 0 0 1 1 1v8a4 4 0 0 1-4 4H7a4 4 0 0 1-4-4V9a1 1 0 0 1 1-1h14a4 4 0 1 1 0 8h-1"/>
  </g>
</svg>